<svg width="31" height="31" viewBox="0 0 31 31" fill="none" xmlns="http://www.w3.org/2000/svg">
<rect width="31" height="31" rx="6" fill="#FF0000"/>
<path d="M24.5266 11.0628C24.3139 10.2726 23.6908 9.64951 22.9007 9.43677C21.457 9.04167 15.6825 9.04167 15.6825 9.04167C15.6825 9.04167 9.90801 9.04167 8.46438 9.42157C7.68938 9.63432 7.05114 10.2726 6.8384 11.0628C6.4585 12.5064 6.4585 15.5 6.4585 15.5C6.4585 15.5 6.4585 18.5088 6.8384 19.9373C7.05114 20.7275 7.67418 21.3505 8.46438 21.5632C9.9232 21.9583 15.6825 21.9583 15.6825 21.9583C15.6825 21.9583 21.457 21.9583 22.9007 21.5784C23.6908 21.3657 24.3139 20.7427 24.5266 19.9525C24.9065 18.5088 24.9065 15.5152 24.9065 15.5152C24.9065 15.5152 24.9217 12.5064 24.5266 11.0628Z" fill="white"/>
<path d="M13.8438 18.2657L18.6457 15.5L13.8438 12.7343V18.2657Z" fill="#FF0000"/>
</svg>
